<?xml version="1.0" encoding="utf-8"?>
<!-- Generator: Adobe Illustrator 27.9.0, SVG Export Plug-In . SVG Version: 6.00 Build 0)  -->
<svg version="1.1" id="Layer_1" xmlns="http://www.w3.org/2000/svg" xmlns:xlink="http://www.w3.org/1999/xlink" x="0px" y="0px"
	 viewBox="0 0 393 490" style="enable-background:new 0 0 393 490;" xml:space="preserve">
<style type="text/css">
	.st0{fill:none;}
	.st1{fill:url(#SVGID_1_);}
	.st2{fill:url(#SVGID_00000118374657403844261330000011225460114618726328_);}
	.st3{fill:url(#SVGID_00000101790589696325758980000012972468072515876744_);}
</style>
<path class="st0" d="M-209.8-140l783,768h-783 M275.6,92.2c0,0.8,0,1.1,0,1.5c-0.9,9.3-1.6,18.7-2.7,28
	c-3.1,26.6-8.5,52.7-18.5,77.6c-3,7.3-6.2,14.5-10.1,21.4c-3.9,7-8.5,13.7-13,20.4c-4.6,6.9-10.2,12.9-16.2,18.6
	c-4.5,4.4-9.3,8.4-14.3,12.2c-6.5,4.9-13.3,9.6-20.2,14.1c-5,3.3-10.4,6.1-15.7,9c-5.4,3-10.9,5.8-16.3,8.6c-5.9,3-11.8,5.9-17.7,9
	c-5.4,2.9-10.9,5.7-16.1,9c-6.7,4.2-13.3,8.5-19.6,13.2c-4.7,3.4-9,7.4-13.3,11.3c-7.1,6.5-13,14.1-18.2,22.2
	C57,379,52,390.6,48.6,402.8c-4.8,17.2-6.7,34.9-6.5,52.8c0,3.9,0.9,7.8,2.1,11.5c2,6.1,6.1,10.8,12,13.4c7.8,3.5,18.1,0.1,23-7
	c3.9-5.7,5.6-11.9,5.6-18.7c0-9.2,0.7-18.5,2.4-27.6c2.9-15.5,9.6-29.1,21-40.2c6.2-6,13.3-11,20.6-15.6c5-3.2,10.2-6,15.5-8.9
	c5.8-3.1,11.6-6,17.5-9c5.5-2.8,10.9-5.6,16.4-8.5c5.5-3,11.1-5.9,16.5-9.1c4.8-2.8,9.7-5.7,14.3-8.9c6.1-4.2,12.1-8.5,17.9-13.1
	c5.3-4.2,10.2-8.8,15.2-13.4c6.6-6.1,12.4-12.9,18-20c6.3-8,12-16.5,17.1-25.4c6.5-11.3,12-23.1,16.7-35.3
	c7.7-20.2,13.2-41,17.1-62.2c3.8-20.4,6.1-40.9,7.5-61.6c0.1-1.8,0.3-3.7,0.5-5.9c2.2,2.4,4.1,4.6,6,6.7c2.9,3.2,5.9,6.5,8.8,9.7
	c3,3.3,6,6.7,8.9,10c3,3.3,6.2,6.5,9,10c4.3,5.4,13.6,8.9,20.4,6.2c6.4-2.5,10.6-6.8,13.2-12.8c4.7-11.1,3.2-24.4-6.6-34.3
	c-3.9-3.9-7.5-8.1-11.2-12.2c-5-5.6-10-11.2-15-16.8c-4.2-4.7-8.6-9.4-12.8-14.1c-3.8-4.2-7.5-8.4-11.2-12.6c-3.5-4-7-8.1-10.7-12
	c-3.8-3.9-7-8.3-12.4-10.7c-5.8-2.5-12.9-1.5-16.9,1.8c-4.8,4-9,8.7-13.3,13.3c-5.2,5.5-10.2,11.2-15.2,16.8
	c-3,3.4-6.1,6.8-9.1,10.1c-2.9,3.2-5.8,6.3-8.7,9.5c-3.2,3.5-6.3,6.9-9.5,10.4c-4.3,4.8-8.8,9.4-13,14.3c-2.2,2.5-4.4,5-5.9,7.8
	c-5.3,10.5-4.9,21,1.4,30.9c3.1,5,7.8,8.3,13.7,9.3c7.2,1.2,12.7-2,17.4-6.9c4.4-4.6,8.5-9.5,12.8-14.2
	C264.3,104.4,269.8,98.5,275.6,92.2L275.6,92.2z M87.5,92.3c1.9,2.1,3.4,3.7,4.9,5.4c3.7,4.1,7.4,8.1,11.1,12.2
	c3.7,4.1,7.5,8,11.2,12.1c3,3.4,6,6.6,10.3,8.4c5.8,2.5,11.3,1.7,16.4-1.5c4.7-2.9,7.9-7.2,9.7-12.5c3.5-10.1,2.7-19.8-3.7-28.4
	c-4.2-5.7-9.4-10.6-14.2-15.9c-3-3.3-6-6.5-9-9.8c-4.3-4.7-8.5-9.5-12.8-14.2c-3.8-4.1-7.6-8.1-11.3-12.3c-3.7-4.1-7.3-8.2-11-12.2
	c-3.1-3.4-6.1-6.9-9.3-10.3c-3.1-3.3-6.5-6.1-11-7.1c-7.9-1.8-14.1,1.4-19.3,7c-3.7,4-7.2,8.1-10.8,12.2c-4.3,4.8-8.7,9.5-13,14.3
	c-5.1,5.7-10.2,11.4-15.3,17.1c-3.6,4-7.2,7.9-10.8,11.9c-5,5.6-10.1,11.3-15.1,16.9c-2.7,3.1-5.4,6.1-6.9,10.1
	c-4,11-3.1,21.3,4.4,30.6c4.3,5.3,9.9,8,16.8,7.3c6.4-0.7,10.8-4.8,14.8-9.5c4.1-4.8,8.5-9.5,12.7-14.2c3.7-4.1,7.4-8.1,11-12.2
	c2.3-2.5,4.5-5,7-7.9c0.3,4.4,0.6,8.2,0.9,12.1c1.6,19.7,4.3,39.2,8.3,58.6c3.6,17.1,8.3,33.9,14.5,50.3
	c4.1,10.9,8.8,21.7,14.5,31.8c4,7.1,8.3,14.2,12.8,21c3.1,4.8,6.7,9.3,10.2,13.7c3.5,4.4,7.4,8.5,11.2,12.6c0.4,0.4,1.6,0.6,2.2,0.3
	c2.1-1,4.1-2.3,6.1-3.3c4.1-2.2,8.3-4.3,12.5-6.4c6.5-3.3,13-6.5,19.5-9.9c2-1,4-2.3,5.9-3.5c-4.2-3.7-8.1-7.3-12.1-10.8
	c-6.2-5.4-11.5-11.6-16.7-18c-7.5-9.3-13.7-19.3-19-29.9c-8.2-16.4-14-33.7-18.3-51.5c-4-16.6-6.6-33.5-8.4-50.5
	C88.3,102,88,97.4,87.5,92.3L87.5,92.3z M214.2,353.1c1,0.6,1.7,1.1,2.5,1.5c4.5,2.2,9.1,4.3,13.6,6.5c4.7,2.3,9.4,4.5,14,7
	c5,2.7,9.8,5.7,14.7,8.6c5.6,3.2,10.6,7.2,15.4,11.5c4.8,4.3,9,9.1,12.5,14.4c5.8,9,9.5,18.9,10.9,29.5c1,7.8,1.6,15.8,1.9,23.7
	c0.4,10.5,4.2,18.9,13.4,24.5c4.5,2.8,15.1,1.5,19.3-2.1c7.3-6.4,10.4-14.5,10-23.9c-0.4-8.9-0.8-17.8-1.8-26.6
	c-2.6-20.7-8.8-40.1-20.4-57.6c-5.1-7.7-10.8-14.8-17.5-21.1c-4.5-4.2-9.2-8.2-14.2-11.8c-5.8-4.3-11.9-8.3-18.1-12.2
	c-4-2.5-8.3-4.5-12.5-6.8C244.6,331.4,230.1,342.9,214.2,353.1L214.2,353.1z"/>
<linearGradient id="SVGID_1_" gradientUnits="userSpaceOnUse" x1="-1600.8558" y1="245.4939" x2="-1255.3356" y2="245.4939" gradientTransform="matrix(-1 0 0 -1 -1250.15 490)">
	<stop  offset="0" style="stop-color:#FBB03B"/>
	<stop  offset="8.000000e-02" style="stop-color:#C98D2F"/>
	<stop  offset="0.17" style="stop-color:#9A6C24"/>
	<stop  offset="0.26" style="stop-color:#714F1A"/>
	<stop  offset="0.35" style="stop-color:#4E3612"/>
	<stop  offset="0.45" style="stop-color:#31220B"/>
	<stop  offset="0.55" style="stop-color:#1B1306"/>
	<stop  offset="0.67" style="stop-color:#0C0802"/>
	<stop  offset="0.8" style="stop-color:#020100"/>
	<stop  offset="0.99" style="stop-color:#000000"/>
</linearGradient>
<path class="st1" d="M214.8,345.6c-5.5-3-11.1-5.9-16.5-9.1c-4.8-2.8-9.7-5.7-14.3-8.9c-6.1-4.2-12.1-8.5-17.9-13.1
	c-5.3-4.2-10.2-8.8-15.2-13.4c-6.6-6.1-12.4-12.9-18-20c-6.3-8-12-16.5-17.1-25.4c-6.5-11.3-12-23.1-16.7-35.3
	c-7.7-20.2-13.2-41-17.1-62.2c-3.8-20.4-6.1-40.9-7.5-61.6c-0.1-1.8-0.3-3.7-0.5-5.9c-2.2,2.4-4.1,4.6-6,6.7
	c-2.9,3.2-5.9,6.5-8.8,9.7c-3,3.3-6,6.7-8.9,10c-3,3.3-6.2,6.5-9,10c-4.3,5.4-13.6,8.9-20.4,6.2c-6.4-2.5-10.6-6.8-13.2-12.8
	C3,109.4,4.6,96.2,14.4,86.3c3.9-3.9,7.5-8.1,11.2-12.2c5-5.6,10-11.2,15-16.8c4.2-4.7,8.6-9.4,12.8-14.1c3.8-4.2,7.5-8.4,11.2-12.6
	c3.5-4,7-8.1,10.7-12c3.8-3.9,7-8.3,12.4-10.7c5.8-2.5,12.9-1.5,16.9,1.8c4.8,4,9,8.7,13.3,13.3c5.2,5.5,10.2,11.2,15.2,16.8
	c3,3.4,6.1,6.8,9.1,10.1c2.9,3.2,5.8,6.3,8.7,9.5c3.2,3.5,6.3,6.9,9.5,10.4c4.3,4.8,8.8,9.4,13,14.3c2.2,2.5,4.4,5,5.9,7.8
	c5.3,10.5,4.9,21-1.4,30.9c-3.1,5-7.8,8.3-13.7,9.3c-7.2,1.2-12.7-2-17.4-6.9c-4.4-4.6-8.5-9.5-12.8-14.2c-5.5-6-11-11.9-16.8-18.2
	c0,0.8,0,1.1,0,1.5c0.9,9.3,1.6,18.7,2.7,28c3.1,26.6,8.5,52.7,18.5,77.6c3,7.3,6.2,14.5,10.1,21.4c3.9,7,8.5,13.7,13,20.4
	c4.6,6.9,10.2,12.9,16.2,18.6c4.5,4.4,9.3,8.4,14.3,12.2c6.5,4.9,13.3,9.6,20.2,14.1c5,3.3,10.4,6.1,15.7,9c5.4,3,10.9,5.8,16.3,8.6
	c5.9,3,11.8,5.9,17.7,9c5.4,2.9,10.9,5.7,16.1,9c6.7,4.2,13.3,8.5,19.6,13.2c4.7,3.4,9,7.4,13.3,11.3c7.1,6.5,13,14.1,18.2,22.2
	c6.9,10.7,11.8,22.3,15.2,34.5c4.8,17.2,6.7,34.9,6.5,52.8c0,3.9-0.9,7.8-2.1,11.5c-2,6.1-6.1,10.8-12,13.4c-7.8,3.5-18.1,0.1-23-7
	c-3.9-5.7-5.6-11.9-5.6-18.7c0-9.2-0.7-18.5-2.4-27.6c-2.9-15.5-9.6-29.1-21-40.2c-6.2-6-13.3-11-20.6-15.6c-5-3.2-10.2-6-15.5-8.9
	c-5.8-3.1-11.6-6-17.5-9C225.7,351.3,220.2,348.5,214.8,345.6"/>
<linearGradient id="SVGID_00000103261817905911588030000015797412581283151786_" gradientUnits="userSpaceOnUse" x1="177.9" y1="160.85" x2="226.31" y2="160.85" gradientTransform="matrix(1 0 0 -1 0 490)">
	<stop  offset="0" style="stop-color:#FF7BAC"/>
	<stop  offset="3.000000e-02" style="stop-color:#F874A2"/>
	<stop  offset="0.14" style="stop-color:#DB5577"/>
	<stop  offset="0.26" style="stop-color:#C23B52"/>
	<stop  offset="0.38" style="stop-color:#AE2534"/>
	<stop  offset="0.5" style="stop-color:#9E141D"/>
	<stop  offset="0.64" style="stop-color:#93090C"/>
	<stop  offset="0.79" style="stop-color:#8D0203"/>
	<stop  offset="0.99" style="stop-color:#8B0000"/>
</linearGradient>
<path style="fill:url(#SVGID_00000103261817905911588030000015797412581283151786_);" d="M226.3,313.4c-7.1,5.7-14.4,11.4-17.5,13.6
	c-4.6,3.2-9.5,6.1-14.3,8.9c-2.7,1.6-9.7,5.3-16.6,9"/>
<linearGradient id="SVGID_00000137121444298609958410000017978157541267791283_" gradientUnits="userSpaceOnUse" x1="42.0342" y1="245.6275" x2="387.5644" y2="245.6275" gradientTransform="matrix(1 0 0 -1 0 490)">
	<stop  offset="0" style="stop-color:#8B0000"/>
	<stop  offset="0.6" style="stop-color:#FF7BAC"/>
</linearGradient>
<path style="fill:url(#SVGID_00000137121444298609958410000017978157541267791283_);" d="M177.9,344.9c-6.8,3.6-13.6,7.2-16.3,8.6
	c-5.8,3-11.7,5.9-17.5,9c-5.2,2.8-10.5,5.7-15.5,8.9c-7.3,4.6-14.4,9.6-20.6,15.6c-11.3,11.1-18,24.7-21,40.2
	c-1.7,9.1-2.4,18.3-2.4,27.6c0,10.8-4.2,19.9-14.5,28c-13.5,0.8-22.7-5.5-26.1-15.7c-1.2-3.7-2-7.7-2.1-11.5
	c-0.2-17.9,1.7-35.5,6.5-52.8c3.4-12.2,8.4-23.8,15.2-34.5c5.2-8.1,11.1-15.7,18.2-22.2c4.3-3.9,8.6-7.9,13.3-11.3
	c6.3-4.7,12.9-9,19.6-13.2c5.2-3.2,10.7-6.1,16.1-9c5.8-3.1,11.8-6,17.7-9c5.5-2.8,10.9-5.6,16.3-8.6c5.3-2.9,10.6-5.7,15.7-9
	c7.7-5,15.3-10.3,22.6-16c3.5-2.7,6.8-5.5,10-8.5c6.6-6.2,13-12.8,18.1-20.5c4.5-6.7,9.1-13.4,13-20.4c3.8-6.9,7.1-14.1,10.1-21.4
	c10.1-24.9,15.4-51,18.5-77.6c1.1-9.3,1.8-18.6,2.7-28c0-0.4,0-0.8,0-1.5c-5.8,6.3-11.3,12.2-16.8,18.2c-4.3,4.7-8.4,9.6-12.8,14.2
	c-4.7,5-10.3,8.1-17.4,6.9c-6-1-10.6-4.3-13.7-9.3c-6.3-9.9-6.7-20.4-1.4-30.9c1.5-2.9,3.7-5.4,5.9-7.8c4.2-4.8,8.7-9.5,13-14.3
	c3.2-3.5,6.3-6.9,9.5-10.4c2.9-3.2,5.8-6.3,8.7-9.5c3.1-3.4,6.1-6.8,9.1-10.1c5.1-5.6,10.1-11.3,15.2-16.8
	c4.3-4.6,8.5-9.3,13.3-13.3c3.9-3.3,11-4.3,16.9-1.8c5.3,2.3,8.6,6.7,12.4,10.7c3.7,3.9,7.1,8,10.7,12c3.7,4.2,7.5,8.4,11.2,12.6
	c4.3,4.7,8.6,9.4,12.8,14.1c5,5.6,10,11.2,15,16.8c3.7,4.1,7.3,8.3,11.2,12.2c9.8,9.9,11.4,23.1,6.6,34.3c-2.5,6-6.8,10.3-13.2,12.8
	c-6.8,2.7-16.1-0.9-20.4-6.2c-2.8-3.5-6-6.7-9-10c-3-3.3-6-6.7-8.9-10.1c-2.9-3.2-5.8-6.5-8.8-9.7c-1.9-2.1-3.8-4.2-6-6.7
	c-0.2,2.2-0.3,4-0.5,5.9c-1.3,20.7-3.7,41.2-7.5,61.6c-3.9,21.2-9.4,42-17.1,62.2c-4.7,12.2-10.2,24-16.7,35.3
	c-5.1,8.9-10.8,17.4-17.1,25.4c-5.6,7.1-11.4,13.9-18,20c-2.4,2.2-8.8,7.6-15.5,12.9"/>
<path class="st0" d="M-482.9-22.5c-3.6,4-7.2,7.9-10.8,11.9c-5.1,5.6-10.1,11.3-15.1,16.9c-2.7,3.1-5.4,6.1-6.8,10.1
	c-4,11-3.1,21.3,4.4,30.6c4.3,5.3,9.9,8,16.8,7.3"/>
</svg>
