<?xml version="1.0" standalone="no"?>
<!DOCTYPE svg PUBLIC "-//W3C//DTD SVG 20010904//EN"
 "http://www.w3.org/TR/2001/REC-SVG-20010904/DTD/svg10.dtd">
<svg version="1.0" xmlns="http://www.w3.org/2000/svg"
 width="980.000000pt" height="980.000000pt" viewBox="0 0 980.000000 980.000000"
 preserveAspectRatio="xMidYMid meet">
<metadata>
Created by potrace 1.14, written by Peter Selinger 2001-2017
</metadata>
<g transform="translate(0.000000,980.000000) scale(0.100000,-0.100000)"
fill="#000000" stroke="none">
<path d="M6898 9684 c-2 -1 -21 -5 -42 -8 -22 -4 -45 -11 -53 -17 -7 -6 -13
-8 -13 -5 0 28 -241 -203 -401 -385 -31 -35 -77 -86 -102 -113 -26 -27 -68
-74 -94 -104 -26 -30 -64 -72 -83 -92 -19 -21 -59 -65 -88 -98 -29 -33 -68
-75 -85 -94 -32 -34 -79 -86 -232 -253 -44 -49 -99 -108 -122 -133 -24 -24
-43 -46 -43 -48 0 -2 -15 -18 -33 -36 -97 -98 -233 -261 -262 -313 -49 -89
-78 -193 -78 -280 0 -59 5 -129 11 -140 3 -5 7 -20 8 -33 5 -40 81 -184 121
-228 110 -120 256 -163 398 -119 30 10 55 22 55 28 0 6 3 7 6 4 12 -12 115 79
197 174 73 83 162 183 198 221 20 22 70 75 110 120 41 44 105 112 142 152 l68
71 -6 -75 c-5 -74 -9 -110 -20 -220 -3 -30 -8 -77 -10 -105 -3 -51 -12 -131
-21 -195 -6 -48 -16 -141 -17 -162 -1 -10 -4 -18 -7 -18 -3 0 -5 -15 -6 -33 0
-17 -4 -52 -8 -77 -4 -25 -9 -56 -11 -70 -1 -14 -10 -63 -20 -110 -9 -47 -18
-98 -20 -115 -3 -16 -7 -39 -9 -50 -3 -11 -14 -63 -26 -115 -25 -120 -93 -370
-127 -469 -14 -42 -26 -82 -26 -88 0 -7 -4 -13 -9 -13 -5 0 -7 -4 -3 -9 3 -5
1 -12 -5 -16 -5 -3 -10 -15 -10 -26 0 -10 -4 -27 -9 -37 -6 -9 -22 -48 -37
-87 -94 -246 -295 -634 -362 -702 -9 -9 -16 -19 -14 -22 2 -3 -4 -15 -12 -26
-8 -11 -41 -59 -73 -106 -104 -154 -137 -193 -303 -359 -125 -124 -170 -167
-221 -205 -127 -96 -185 -141 -187 -147 -3 -7 -41 8 -52 21 -3 3 -36 30 -74
59 -168 128 -417 370 -501 486 -11 16 -25 33 -30 40 -23 25 -175 257 -175 266
0 6 -4 10 -8 10 -5 0 -15 12 -23 28 -7 15 -23 41 -34 57 -11 17 -25 39 -32 50
-21 34 -116 216 -119 225 0 3 -18 41 -38 85 -35 73 -145 344 -151 369 -1 6 -5
20 -9 31 -5 11 -12 32 -18 47 -6 15 -10 30 -9 33 1 3 -5 21 -13 40 -9 20 -15
39 -16 43 0 4 -6 25 -12 47 -6 22 -12 43 -14 48 -1 4 -3 10 -4 15 -1 4 -3 12
-4 17 -1 6 -5 17 -8 25 -9 20 -54 209 -79 330 -11 52 -22 102 -24 111 -2 9 -6
32 -9 50 -3 19 -8 45 -10 59 -17 93 -28 159 -32 185 -2 17 -6 46 -8 65 -3 19
-8 53 -11 75 -2 22 -7 60 -10 85 -7 55 -15 122 -20 175 -2 22 -6 63 -9 90 -3
28 -8 86 -12 130 -8 97 -12 130 -14 130 0 0 -2 24 -4 53 -1 28 0 52 4 52 3 0
44 -41 90 -91 47 -51 105 -112 128 -138 47 -49 154 -168 212 -234 225 -257
299 -309 445 -312 88 -2 197 40 260 102 60 58 136 185 150 252 3 12 8 31 11
44 10 36 13 206 3 235 -31 100 -53 159 -64 172 -8 8 -14 19 -14 23 0 7 -25 43
-61 86 -38 46 -139 159 -175 197 -22 23 -69 74 -105 114 -36 40 -76 84 -90 99
-59 64 -218 237 -250 273 -19 22 -51 56 -70 77 -19 21 -60 66 -90 100 -30 35
-71 80 -90 101 -33 35 -143 158 -182 203 -50 57 -240 257 -284 299 -116 110
-179 139 -296 134 -115 -5 -191 -47 -307 -169 -145 -154 -242 -262 -261 -293
-8 -13 -20 -24 -27 -24 -7 0 -13 -4 -13 -10 0 -5 -8 -18 -17 -28 -10 -10 -47
-51 -83 -92 -36 -41 -81 -91 -100 -111 -19 -20 -58 -63 -87 -95 -28 -33 -64
-73 -80 -90 -15 -17 -62 -68 -103 -114 -41 -46 -88 -98 -105 -116 -16 -18 -50
-56 -75 -84 -25 -29 -54 -62 -65 -74 -11 -12 -51 -57 -90 -101 -38 -43 -103
-113 -144 -157 -41 -43 -81 -89 -90 -101 -8 -12 -18 -24 -22 -27 -6 -5 -77
-144 -78 -155 -1 -3 -1 -6 -2 -7 -1 -4 -6 -28 -15 -68 -9 -45 -10 -162 -1
-219 18 -113 80 -233 158 -306 43 -39 166 -108 180 -99 4 2 10 0 13 -4 5 -9
76 -7 133 3 18 3 35 5 38 5 3 -1 33 14 66 31 64 34 100 67 189 169 30 35 74
83 98 107 23 24 42 46 42 48 0 2 12 17 27 33 16 16 60 64 98 108 39 43 85 93
102 112 18 18 33 34 33 37 0 2 17 21 38 42 20 22 61 67 91 101 30 34 56 61 57
59 2 -2 6 -30 9 -63 3 -32 8 -86 11 -118 3 -33 7 -89 9 -125 2 -36 6 -86 9
-111 3 -25 8 -71 11 -103 2 -32 7 -78 10 -103 3 -24 7 -65 10 -90 3 -25 8 -67
11 -93 2 -25 6 -53 9 -61 2 -8 7 -40 10 -70 7 -57 11 -88 21 -142 3 -18 7 -42
9 -53 1 -11 6 -40 10 -65 4 -25 9 -52 10 -60 1 -8 5 -31 9 -50 3 -19 8 -44 10
-55 1 -11 6 -31 9 -45 4 -14 9 -38 11 -55 5 -29 9 -50 22 -110 4 -16 8 -39 10
-50 1 -11 3 -20 4 -20 2 0 5 -12 13 -55 9 -42 74 -291 96 -365 12 -38 23 -79
26 -89 2 -11 12 -42 21 -70 10 -28 17 -52 16 -53 -1 -2 5 -20 12 -40 8 -21 38
-103 67 -183 28 -80 59 -163 69 -185 94 -216 133 -302 202 -435 44 -85 93
-174 109 -198 16 -24 29 -47 29 -51 0 -4 12 -26 28 -48 37 -53 51 -75 59 -93
4 -8 11 -19 15 -25 5 -5 17 -21 28 -34 11 -13 20 -28 20 -32 0 -4 6 -14 13
-21 7 -7 34 -43 60 -80 26 -36 54 -73 62 -82 8 -8 15 -19 15 -25 0 -6 3 -11 8
-11 4 0 27 -26 52 -57 65 -83 83 -105 200 -226 58 -60 106 -112 107 -115 1 -4
-71 -43 -160 -87 -167 -82 -418 -215 -535 -284 -71 -42 -363 -235 -412 -273
-203 -156 -399 -343 -508 -483 -146 -188 -288 -445 -375 -675 -13 -36 -25 -69
-27 -75 -1 -5 -4 -14 -6 -20 -30 -94 -67 -235 -88 -336 -3 -13 -7 -33 -9 -44
-3 -11 -8 -40 -12 -65 -4 -25 -9 -54 -11 -65 -3 -11 -7 -42 -9 -70 -3 -27 -7
-61 -10 -74 -4 -23 -13 -121 -20 -225 -2 -28 -4 -118 -5 -201 0 -131 4 -179
24 -270 10 -45 39 -121 52 -136 8 -8 14 -20 14 -26 0 -6 24 -35 53 -64 53 -55
159 -119 194 -119 11 0 23 -3 27 -7 9 -9 24 -11 117 -18 73 -5 79 -4 109 23
53 44 110 105 128 135 9 15 20 27 24 27 4 0 8 5 8 12 0 6 6 19 13 27 14 17 57
114 62 141 2 8 4 15 5 15 9 0 21 130 26 285 2 85 6 173 9 195 9 84 16 141 21
165 2 14 7 43 10 65 3 22 11 58 17 80 13 48 11 42 21 85 14 59 82 232 117 295
47 86 114 193 128 205 3 3 18 21 33 41 42 57 166 176 253 244 78 60 242 175
252 175 2 0 19 11 36 23 57 42 240 143 512 282 223 114 336 174 353 187 6 6
12 8 12 4 0 -4 10 0 23 8 38 25 110 65 149 82 21 9 35 21 31 27 -3 6 -1 7 5 3
11 -7 44 8 70 31 7 7 19 13 25 13 7 1 41 18 77 39 l64 39 66 -36 c36 -19 76
-43 90 -52 14 -9 42 -24 62 -33 20 -10 40 -22 43 -27 4 -6 10 -8 15 -5 5 3 11
1 14 -4 4 -5 42 -28 87 -51 130 -67 171 -89 185 -101 8 -6 14 -8 14 -4 0 4 10
1 23 -7 12 -8 126 -68 252 -133 127 -65 235 -121 240 -125 6 -4 41 -24 79 -45
38 -21 79 -43 90 -49 21 -12 78 -47 106 -65 8 -6 56 -37 105 -69 158 -103 331
-254 420 -367 22 -27 42 -52 45 -55 3 -3 21 -30 40 -60 19 -30 37 -57 40 -60
10 -9 69 -135 100 -212 31 -78 77 -241 85 -300 3 -18 7 -44 10 -58 3 -14 7
-45 10 -70 15 -131 15 -127 30 -440 6 -122 19 -178 66 -275 52 -108 145 -192
254 -227 16 -6 63 -12 103 -13 82 -3 148 16 216 62 42 29 106 92 106 104 0 4
6 14 13 21 28 28 70 149 84 240 16 100 3 479 -22 658 -3 25 -8 56 -9 70 -4 27
-13 79 -22 125 -3 17 -7 39 -9 50 -9 61 -74 311 -92 355 -3 8 -8 24 -10 34 -2
10 -12 39 -23 64 -11 24 -20 48 -20 53 0 33 -142 313 -218 428 -31 47 -59 91
-62 96 -35 71 -266 324 -414 451 -37 32 -73 64 -80 70 -23 21 -293 212 -354
250 -250 155 -307 186 -658 364 -105 53 -195 100 -201 103 -5 4 42 59 106 125
64 65 132 137 151 161 19 25 40 49 45 55 6 6 26 31 45 56 19 25 37 47 40 50 9
9 85 112 137 185 140 199 346 572 442 800 19 44 42 98 51 120 23 54 93 241 96
255 0 3 4 12 7 20 3 8 16 44 27 80 12 36 24 72 27 80 8 19 7 18 17 60 5 19 11
40 14 45 4 6 7 15 8 20 1 6 12 43 24 84 12 41 24 82 26 92 2 11 6 27 9 37 17
63 26 100 31 121 2 12 12 53 21 90 8 36 16 73 17 81 1 9 5 21 10 28 4 6 5 12
3 12 -2 0 2 26 10 58 8 31 16 73 18 92 2 19 7 46 10 60 5 23 31 163 40 220 8
50 25 156 30 195 4 22 8 51 10 65 2 14 7 52 10 85 4 33 9 74 11 90 5 28 8 57
18 158 3 23 8 73 11 111 10 91 13 134 20 236 8 127 16 204 22 210 2 3 11 -4
18 -14 12 -16 92 -105 188 -209 15 -17 51 -57 80 -90 29 -33 63 -72 77 -87 14
-16 40 -46 58 -67 52 -59 181 -199 244 -265 82 -85 165 -122 277 -125 46 -1
89 1 95 5 6 4 13 7 16 7 24 2 112 58 159 100 82 77 148 217 156 335 2 30 5 57
6 60 1 3 0 10 -1 15 -1 6 -3 30 -5 55 -5 61 -13 104 -27 137 -6 15 -12 30 -12
33 -4 19 -51 100 -58 100 -4 0 -8 6 -8 13 0 12 -10 24 -160 187 -102 110 -117
128 -195 215 -33 38 -69 78 -80 91 -11 12 -46 51 -77 85 -31 35 -66 76 -79 90
-13 14 -58 63 -99 109 -41 46 -92 102 -113 124 -21 22 -64 70 -95 105 -68 77
-108 123 -142 160 -14 16 -52 59 -85 96 -139 159 -278 308 -311 335 -47 38
-83 58 -129 73 -45 14 -140 28 -147 21z"/>
</g>
</svg>
